<?xml version="1.0" encoding="utf-8"?>
<!-- Generator: Adobe Illustrator 26.5.0, SVG Export Plug-In . SVG Version: 6.00 Build 0)  -->
<svg version="1.1" id="Layer_1" xmlns="http://www.w3.org/2000/svg" xmlns:xlink="http://www.w3.org/1999/xlink" x="0px" y="0px"
	 viewBox="0 0 210 285" style="enable-background:new 0 0 210 285;" xml:space="preserve">
<style type="text/css">
	.st0{fill:#005655;}
	.st1{fill:#7D49F3;}
	.st2{fill:#FFEFD7;}
	.st3{fill:#CDFF00;}
	.st4{fill:#ABDDFF;}
	.st5{fill:#FFFFFF;}
</style>
<path class="st0" d="M186.9,153.8c8-14.1,12-30.3,12-48.6s-4-34.6-12-48.7c-8-14.1-19-25.1-33.1-33.1c-14.1-8-30.4-12-49-12
	c-18.1,0-34.3,4-48.5,12c-14.2,8-25.3,19-33.3,33.1c-8,14.1-12,30.3-12,48.7c0,18.4,4.1,34.6,12.2,48.6
	c8.1,14.1,19.3,25.1,33.4,33.1c14.2,8,30.5,12,48.8,12c18.4,0,34.5-4,48.5-12C168,178.9,178.9,167.9,186.9,153.8z M136.1,123.5
	c-3,5.3-7.1,9.5-12.3,12.5c-5.3,3-11.4,4.5-18.3,4.5c-6.9,0-13.1-1.5-18.6-4.5c-5.5-3-9.7-7.2-12.6-12.5c-3-5.3-4.5-11.4-4.5-18.4
	c0-6.9,1.5-13,4.5-18.4c3-5.3,7.1-9.5,12.5-12.5c5.4-3,11.4-4.5,18.1-4.5c6.9,0,13.1,1.5,18.5,4.5c5.4,3,9.6,7.2,12.6,12.5
	c3.1,5.3,4.6,11.4,4.6,18.4C140.6,112.1,139.1,118.2,136.1,123.5z M140.2,215.3c-11.2,3.3-23,5.1-35.2,5.1s-24.1-1.8-35.2-5.1
	l35.2,58.2L140.2,215.3z"/>
</svg>
